<?xml version="1.0" encoding="iso-8859-1" standalone="no"?>
<!DOCTYPE svg PUBLIC "-//W3C//DTD SVG 20010904//EN" 
  "http://www.w3.org/TR/2001/REC-SVG-20010904/DTD/svg10.dtd" [ 
<!ENTITY ff "font-family:">
<!ENTITY fs "font-size:">
<!ENTITY fw "font-weight:">
<!ENTITY fst "font-style:">
<!ENTITY sw "stroke-width:">
<!ENTITY as "text-anchor:start;">
<!ENTITY am "text-anchor:middle;">
<!ENTITY ae "text-anchor:end;">
]>
<!-- Generated by ploticus (http://ploticus.sourceforge.net/)
Title: ploticus-graphic
SVG Driver by B.Traill
-->
<svg xmlns="http://www.w3.org/2000/svg" 
  viewBox="0 0 462.80 304.24"      
  xmlns:xlink="http://www.w3.org/1999/xlink"
>
<g transform="translate(4.80 ,-44.16)" >                                                         

<g style="fill:#000000;stroke:#000000;&ff;Helvetica;">
<g style="&sw;0.6;&fs;10pt;&as;">
<path d="M0 360l0 -360l504 0l0 360z" fill="#ffffff" stroke="#ffffff"/>
<text x="72.00" y="70.56" stroke="none">Size Results</text>
</g><g style="&sw;0.6;&fs;10pt;&am;">
<text x="252.00" y="316.80" stroke="none">Size(GZbytes)</text>
</g><g style="&sw;0.6;&fs;8pt;&am;">
<text x="72.00" y="303.04" stroke="none">0</text>
</g><g style="&sw;0.5;&fs;8pt;&am;">
<path d="M72 293l0 -5.04" fill="none"/>
<text x="97.71" y="303.04" stroke="none">500</text>
<path d="M97.71 293l0 -5.04" fill="none"/>
<text x="123.43" y="303.04" stroke="none">1000</text>
<path d="M123.4 293l0 -5.04" fill="none"/>
<text x="149.14" y="303.04" stroke="none">1500</text>
<path d="M149.1 293l0 -5.04" fill="none"/>
<text x="174.86" y="303.04" stroke="none">2000</text>
<path d="M174.9 293l0 -5.04" fill="none"/>
<text x="200.57" y="303.04" stroke="none">2500</text>
<path d="M200.6 293l0 -5.04" fill="none"/>
<text x="226.29" y="303.04" stroke="none">3000</text>
<path d="M226.3 293l0 -5.04" fill="none"/>
<text x="252.00" y="303.04" stroke="none">3500</text>
<path d="M252 293l0 -5.04" fill="none"/>
<text x="277.71" y="303.04" stroke="none">4000</text>
<path d="M277.7 293l0 -5.04" fill="none"/>
<text x="303.43" y="303.04" stroke="none">4500</text>
<path d="M303.4 293l0 -5.04" fill="none"/>
<text x="329.14" y="303.04" stroke="none">5000</text>
<path d="M329.1 293l0 -5.04" fill="none"/>
<text x="354.86" y="303.04" stroke="none">5500</text>
<path d="M354.9 293l0 -5.04" fill="none"/>
<text x="380.57" y="303.04" stroke="none">6000</text>
<path d="M380.6 293l0 -5.04" fill="none"/>
<text x="406.29" y="303.04" stroke="none">6500</text>
<path d="M406.3 293l0 -5.04" fill="none"/>
<text x="432.00" y="303.04" stroke="none">7000</text>
<path d="M432 293l0 -5.04" fill="none"/>
<path d="M72 288l360 0" fill="none"/>
</g><g style="&sw;0.5;&fs;8pt;&ae;">
<text x="61.20" y="99.00" stroke="none">mandelbrot</text>
<path d="M66.96 96l5.04 0" fill="none"/>
<text x="61.20" y="123.00" stroke="none">partialSums</text>
<path d="M66.96 120l5.04 0" fill="none"/>
<text x="61.20" y="147.00" stroke="none">recursive</text>
<path d="M66.96 144l5.04 0" fill="none"/>
<text x="61.20" y="171.00" stroke="none">binaryTrees</text>
<path d="M66.96 168l5.04 0" fill="none"/>
<text x="61.20" y="195.00" stroke="none">sumFile</text>
<path d="M66.96 192l5.04 0" fill="none"/>
<text x="61.20" y="219.00" stroke="none">fannkuch</text>
<path d="M66.96 216l5.04 0" fill="none"/>
<text x="61.20" y="243.00" stroke="none">spectralNorm</text>
<path d="M66.96 240l5.04 0" fill="none"/>
<text x="61.20" y="267.00" stroke="none">nsieve</text>
<path d="M66.96 264l5.04 0" fill="none"/>
<path d="M72 288l0 -216" fill="none"/>
<path d="M72 94.2l223.8 0l0 -3.6l-223.8 0z" fill="#ff0000" stroke="#ff0000"/>
<path d="M72 94.2l223.8 0l0 -3.6l-223.8 0l0 3.6" fill="none"/>
<path d="M72 118.2l151.5 0l0 -3.6l-151.5 0z" fill="#ff0000" stroke="#ff0000"/>
<path d="M72 118.2l151.5 0l0 -3.6l-151.5 0l0 3.6" fill="none"/>
<path d="M72 142.2l323.7 0l0 -3.6l-323.7 0z" fill="#ff0000" stroke="#ff0000"/>
<path d="M72 142.2l323.7 0l0 -3.6l-323.7 0l0 3.6" fill="none"/>
<path d="M72 166.2l283.8 0l0 -3.6l-283.8 0z" fill="#ff0000" stroke="#ff0000"/>
<path d="M72 166.2l283.8 0l0 -3.6l-283.8 0l0 3.6" fill="none"/>
<path d="M72 190.2l132.7 0l0 -3.6l-132.7 0z" fill="#ff0000" stroke="#ff0000"/>
<path d="M72 190.2l132.7 0l0 -3.6l-132.7 0l0 3.6" fill="none"/>
<path d="M72 214.2l302.7 0l0 -3.6l-302.7 0z" fill="#ff0000" stroke="#ff0000"/>
<path d="M72 214.2l302.7 0l0 -3.6l-302.7 0l0 3.6" fill="none"/>
<path d="M72 238.2l320.9 0l0 -3.6l-320.9 0z" fill="#ff0000" stroke="#ff0000"/>
<path d="M72 238.2l320.9 0l0 -3.6l-320.9 0l0 3.6" fill="none"/>
<path d="M72 262.2l135.2 0l0 -3.6l-135.2 0z" fill="#ff0000" stroke="#ff0000"/>
<path d="M72 262.2l135.2 0l0 -3.6l-135.2 0l0 3.6" fill="none"/>
<path d="M72 97.8l65.93 0l0 -3.6l-65.93 0z" fill="#ffff00" stroke="#ffff00"/>
<path d="M72 97.8l65.93 0l0 -3.6l-65.93 0l0 3.6" fill="none"/>
<path d="M72 121.8l72.82 0l0 -3.6l-72.82 0z" fill="#ffff00" stroke="#ffff00"/>
<path d="M72 121.8l72.82 0l0 -3.6l-72.82 0l0 3.6" fill="none"/>
<path d="M72 145.8l72.41 0l0 -3.6l-72.41 0z" fill="#ffff00" stroke="#ffff00"/>
<path d="M72 145.8l72.41 0l0 -3.6l-72.41 0l0 3.6" fill="none"/>
<path d="M72 169.8l75.39 0l0 -3.6l-75.39 0z" fill="#ffff00" stroke="#ffff00"/>
<path d="M72 169.8l75.39 0l0 -3.6l-75.39 0l0 3.6" fill="none"/>
<path d="M72 193.8l55.9 0l0 -3.6l-55.9 0z" fill="#ffff00" stroke="#ffff00"/>
<path d="M72 193.8l55.9 0l0 -3.6l-55.9 0l0 3.6" fill="none"/>
<path d="M72 217.8l71.64 0l0 -3.6l-71.64 0z" fill="#ffff00" stroke="#ffff00"/>
<path d="M72 217.8l71.64 0l0 -3.6l-71.64 0l0 3.6" fill="none"/>
<path d="M72 241.8l73.03 0l0 -3.6l-73.03 0z" fill="#ffff00" stroke="#ffff00"/>
<path d="M72 241.8l73.03 0l0 -3.6l-73.03 0l0 3.6" fill="none"/>
<path d="M72 265.8l60.38 0l0 -3.6l-60.38 0z" fill="#ffff00" stroke="#ffff00"/>
<path d="M72 265.8l60.38 0l0 -3.6l-60.38 0l0 3.6" fill="none"/>
<path d="M72 101.4l114.3 0l0 -3.6l-114.3 0z" fill="#0066cc" stroke="#0066cc"/>
<path d="M72 101.4l114.3 0l0 -3.6l-114.3 0l0 3.6" fill="none"/>
<path d="M72 125.4l297.4 0l0 -3.6l-297.4 0z" fill="#0066cc" stroke="#0066cc"/>
<path d="M72 125.4l297.4 0l0 -3.6l-297.4 0l0 3.6" fill="none"/>
<path d="M72 149.4l286.1 0l0 -3.6l-286.1 0z" fill="#0066cc" stroke="#0066cc"/>
<path d="M72 149.4l286.1 0l0 -3.6l-286.1 0l0 3.6" fill="none"/>
<path d="M72 173.4l233.5 0l0 -3.6l-233.5 0z" fill="#0066cc" stroke="#0066cc"/>
<path d="M72 173.4l233.5 0l0 -3.6l-233.5 0l0 3.6" fill="none"/>
<path d="M72 197.4l94.89 0l0 -3.6l-94.89 0z" fill="#0066cc" stroke="#0066cc"/>
<path d="M72 197.4l94.89 0l0 -3.6l-94.89 0l0 3.6" fill="none"/>
<path d="M72 221.4l220 0l0 -3.6l-220 0z" fill="#0066cc" stroke="#0066cc"/>
<path d="M72 221.4l220 0l0 -3.6l-220 0l0 3.6" fill="none"/>
<path d="M72 245.4l200.2 0l0 -3.6l-200.2 0z" fill="#0066cc" stroke="#0066cc"/>
<path d="M72 245.4l200.2 0l0 -3.6l-200.2 0l0 3.6" fill="none"/>
<path d="M72 269.4l101.1 0l0 -3.6l-101.1 0z" fill="#0066cc" stroke="#0066cc"/>
<path d="M72 269.4l101.1 0l0 -3.6l-101.1 0l0 3.6" fill="none"/>
<path d="M72 105l131.9 0l0 -3.6l-131.9 0z" fill="#00b200" stroke="#00b200"/>
<path d="M72 105l131.9 0l0 -3.6l-131.9 0l0 3.6" fill="none"/>
<path d="M72 129l319.1 0l0 -3.6l-319.1 0z" fill="#00b200" stroke="#00b200"/>
<path d="M72 129l319.1 0l0 -3.6l-319.1 0l0 3.6" fill="none"/>
<path d="M72 153l307.3 0l0 -3.6l-307.3 0z" fill="#00b200" stroke="#00b200"/>
<path d="M72 153l307.3 0l0 -3.6l-307.3 0l0 3.6" fill="none"/>
<path d="M72 177l306.5 0l0 -3.6l-306.5 0z" fill="#00b200" stroke="#00b200"/>
<path d="M72 177l306.5 0l0 -3.6l-306.5 0l0 3.6" fill="none"/>
<path d="M72 201l198.6 0l0 -3.6l-198.6 0z" fill="#00b200" stroke="#00b200"/>
<path d="M72 201l198.6 0l0 -3.6l-198.6 0l0 3.6" fill="none"/>
<path d="M72 225l370 0l0 -3.6l-370 0z" fill="#00b200" stroke="#00b200"/>
<path d="M72 225l370 0l0 -3.6l-370 0l0 3.6" fill="none"/>
<path d="M72 249l310.4 0l0 -3.6l-310.4 0z" fill="#00b200" stroke="#00b200"/>
<path d="M72 249l310.4 0l0 -3.6l-310.4 0l0 3.6" fill="none"/>
<path d="M72 273l198.8 0l0 -3.6l-198.8 0z" fill="#00b200" stroke="#00b200"/>
<path d="M72 273l198.8 0l0 -3.6l-198.8 0l0 3.6" fill="none"/>
<path d="M201.6 334l0 -7.2l7.2 0l0 7.2z" fill="#ff0000" stroke="#ff0000"/>
</g><g style="&sw;0.5;&fs;8pt;&as;">
<text x="216.00" y="334.00" stroke="none">C++</text>
<path d="M249.6 334l0 -7.2l7.2 0l0 7.2z" fill="#ffff00" stroke="#ffff00"/>
<text x="264.00" y="334.00" stroke="none">Mono</text>
<path d="M301.6 334l0 -7.2l7.2 0l0 7.2z" fill="#0066cc" stroke="#0066cc"/>
<text x="316.00" y="334.00" stroke="none">plain-C</text>
<path d="M365.6 334l0 -7.2l7.2 0l0 7.2z" fill="#00b200" stroke="#00b200"/>
<text x="380.00" y="334.00" stroke="none">Vala</text>
</g></g>
</g>
</svg>
