<?xml version="1.0" encoding="iso-8859-1" standalone="no"?>
<!DOCTYPE svg PUBLIC "-//W3C//DTD SVG 20010904//EN" 
  "http://www.w3.org/TR/2001/REC-SVG-20010904/DTD/svg10.dtd" [ 
<!ENTITY ff "font-family:">
<!ENTITY fs "font-size:">
<!ENTITY fw "font-weight:">
<!ENTITY fst "font-style:">
<!ENTITY sw "stroke-width:">
<!ENTITY as "text-anchor:start;">
<!ENTITY am "text-anchor:middle;">
<!ENTITY ae "text-anchor:end;">
]>
<!-- Generated by ploticus (http://ploticus.sourceforge.net/)
Title: ploticus-graphic
SVG Driver by B.Traill
-->
<svg xmlns="http://www.w3.org/2000/svg" 
  viewBox="0 0 596.37 304.24"      
  xmlns:xlink="http://www.w3.org/1999/xlink"
>
<g transform="translate(4.80 ,-44.16)" >                                                         

<g style="fill:#000000;stroke:#000000;&ff;Helvetica;">
<g style="&sw;0.6;&fs;10pt;&as;">
<path d="M0 360l0 -360l504 0l0 360z" fill="#ffffff" stroke="#ffffff"/>
<text x="72.00" y="70.56" stroke="none">Time Results</text>
</g><g style="&sw;0.6;&fs;10pt;&am;">
<text x="252.00" y="316.80" stroke="none">Time(s)</text>
</g><g style="&sw;0.6;&fs;8pt;&am;">
<text x="72.00" y="303.04" stroke="none">0</text>
</g><g style="&sw;0.5;&fs;8pt;&am;">
<path d="M72 293l0 -5.04" fill="none"/>
<text x="117.00" y="303.04" stroke="none">5</text>
<path d="M117 293l0 -5.04" fill="none"/>
<text x="162.00" y="303.04" stroke="none">10</text>
<path d="M162 293l0 -5.04" fill="none"/>
<text x="207.00" y="303.04" stroke="none">15</text>
<path d="M207 293l0 -5.04" fill="none"/>
<text x="252.00" y="303.04" stroke="none">20</text>
<path d="M252 293l0 -5.04" fill="none"/>
<text x="297.00" y="303.04" stroke="none">25</text>
<path d="M297 293l0 -5.04" fill="none"/>
<text x="342.00" y="303.04" stroke="none">30</text>
<path d="M342 293l0 -5.04" fill="none"/>
<text x="387.00" y="303.04" stroke="none">35</text>
<path d="M387 293l0 -5.04" fill="none"/>
<text x="432.00" y="303.04" stroke="none">40</text>
<path d="M432 293l0 -5.04" fill="none"/>
<path d="M72 288l360 0" fill="none"/>
</g><g style="&sw;0.5;&fs;8pt;&ae;">
<text x="61.20" y="99.00" stroke="none">mandelbrot</text>
<path d="M66.96 96l5.04 0" fill="none"/>
<text x="61.20" y="123.00" stroke="none">partialSums</text>
<path d="M66.96 120l5.04 0" fill="none"/>
<text x="61.20" y="147.00" stroke="none">recursive</text>
<path d="M66.96 144l5.04 0" fill="none"/>
<text x="61.20" y="171.00" stroke="none">binaryTrees</text>
<path d="M66.96 168l5.04 0" fill="none"/>
<text x="61.20" y="195.00" stroke="none">sumFile</text>
<path d="M66.96 192l5.04 0" fill="none"/>
<text x="61.20" y="219.00" stroke="none">fannkuch</text>
<path d="M66.96 216l5.04 0" fill="none"/>
<text x="61.20" y="243.00" stroke="none">spectralNorm</text>
<path d="M66.96 240l5.04 0" fill="none"/>
<text x="61.20" y="267.00" stroke="none">nsieve</text>
<path d="M66.96 264l5.04 0" fill="none"/>
<path d="M72 288l0 -216" fill="none"/>
<path d="M72 93.84l130.5 0l0 -4.32l-130.5 0z" fill="#ff0000" stroke="#ff0000"/>
<path d="M72 93.84l130.5 0l0 -4.32l-130.5 0l0 4.32" fill="none"/>
<path d="M72 117.8l297.4 0l0 -4.32l-297.4 0z" fill="#ff0000" stroke="#ff0000"/>
<path d="M72 117.8l297.4 0l0 -4.32l-297.4 0l0 4.32" fill="none"/>
<path d="M72 141.8l116.5 0l0 -4.32l-116.5 0z" fill="#ff0000" stroke="#ff0000"/>
<path d="M72 141.8l116.5 0l0 -4.32l-116.5 0l0 4.32" fill="none"/>
<path d="M72 165.8l250.8 0l0 -4.32l-250.8 0z" fill="#ff0000" stroke="#ff0000"/>
<path d="M72 165.8l250.8 0l0 -4.32l-250.8 0l0 4.32" fill="none"/>
<path d="M72 189.8l154 0l0 -4.32l-154 0z" fill="#ff0000" stroke="#ff0000"/>
<path d="M72 189.8l154 0l0 -4.32l-154 0l0 4.32" fill="none"/>
<path d="M72 213.8l103.1 0l0 -4.32l-103.1 0z" fill="#ff0000" stroke="#ff0000"/>
<path d="M72 213.8l103.1 0l0 -4.32l-103.1 0l0 4.32" fill="none"/>
<path d="M72 237.8l295.4 0l0 -4.32l-295.4 0z" fill="#ff0000" stroke="#ff0000"/>
<path d="M72 237.8l295.4 0l0 -4.32l-295.4 0l0 4.32" fill="none"/>
<path d="M72 261.8l227.9 0l0 -4.32l-227.9 0z" fill="#ff0000" stroke="#ff0000"/>
<path d="M72 261.8l227.9 0l0 -4.32l-227.9 0l0 4.32" fill="none"/>
<path d="M72 98.16l491.5 0l0 -4.32l-491.5 0z" fill="#ffff00" stroke="#ffff00"/>
<path d="M72 98.16l491.5 0l0 -4.32l-491.5 0l0 4.32" fill="none"/>
<path d="M72 122.2l505.2 0l0 -4.32l-505.2 0z" fill="#ffff00" stroke="#ffff00"/>
<path d="M72 122.2l505.2 0l0 -4.32l-505.2 0l0 4.32" fill="none"/>
<path d="M72 146.2l271.3 0l0 -4.32l-271.3 0z" fill="#ffff00" stroke="#ffff00"/>
<path d="M72 146.2l271.3 0l0 -4.32l-271.3 0l0 4.32" fill="none"/>
<path d="M72 170.2l394.8 0l0 -4.32l-394.8 0z" fill="#ffff00" stroke="#ffff00"/>
<path d="M72 170.2l394.8 0l0 -4.32l-394.8 0l0 4.32" fill="none"/>
<path d="M72 194.2l206 0l0 -4.32l-206 0z" fill="#ffff00" stroke="#ffff00"/>
<path d="M72 194.2l206 0l0 -4.32l-206 0l0 4.32" fill="none"/>
<path d="M72 218.2l243.4 0l0 -4.32l-243.4 0z" fill="#ffff00" stroke="#ffff00"/>
<path d="M72 218.2l243.4 0l0 -4.32l-243.4 0l0 4.32" fill="none"/>
<path d="M72 242.2l448.4 0l0 -4.32l-448.4 0z" fill="#ffff00" stroke="#ffff00"/>
<path d="M72 242.2l448.4 0l0 -4.32l-448.4 0l0 4.32" fill="none"/>
<path d="M72 266.2l252.3 0l0 -4.32l-252.3 0z" fill="#ffff00" stroke="#ffff00"/>
<path d="M72 266.2l252.3 0l0 -4.32l-252.3 0l0 4.32" fill="none"/>
<path d="M72 102.5l111.5 0l0 -4.32l-111.5 0z" fill="#0066cc" stroke="#0066cc"/>
<path d="M72 102.5l111.5 0l0 -4.32l-111.5 0l0 4.32" fill="none"/>
<path d="M72 126.5l315 0l0 -4.32l-315 0z" fill="#0066cc" stroke="#0066cc"/>
<path d="M72 126.5l315 0l0 -4.32l-315 0l0 4.32" fill="none"/>
<path d="M72 150.5l75.96 0l0 -4.32l-75.96 0z" fill="#0066cc" stroke="#0066cc"/>
<path d="M72 150.5l75.96 0l0 -4.32l-75.96 0l0 4.32" fill="none"/>
<path d="M72 174.5l194 0l0 -4.32l-194 0z" fill="#0066cc" stroke="#0066cc"/>
<path d="M72 174.5l194 0l0 -4.32l-194 0l0 4.32" fill="none"/>
<path d="M72 198.5l125.9 0l0 -4.32l-125.9 0z" fill="#0066cc" stroke="#0066cc"/>
<path d="M72 198.5l125.9 0l0 -4.32l-125.9 0l0 4.32" fill="none"/>
<path d="M72 222.5l101.3 0l0 -4.32l-101.3 0z" fill="#0066cc" stroke="#0066cc"/>
<path d="M72 222.5l101.3 0l0 -4.32l-101.3 0l0 4.32" fill="none"/>
<path d="M72 246.5l299.2 0l0 -4.32l-299.2 0z" fill="#0066cc" stroke="#0066cc"/>
<path d="M72 246.5l299.2 0l0 -4.32l-299.2 0l0 4.32" fill="none"/>
<path d="M72 270.5l227.8 0l0 -4.32l-227.8 0z" fill="#0066cc" stroke="#0066cc"/>
<path d="M72 270.5l227.8 0l0 -4.32l-227.8 0l0 4.32" fill="none"/>
<path d="M72 106.8l118.2 0l0 -4.32l-118.2 0z" fill="#00b200" stroke="#00b200"/>
<path d="M72 106.8l118.2 0l0 -4.32l-118.2 0l0 4.32" fill="none"/>
<path d="M72 130.8l314.6 0l0 -4.32l-314.6 0z" fill="#00b200" stroke="#00b200"/>
<path d="M72 130.8l314.6 0l0 -4.32l-314.6 0l0 4.32" fill="none"/>
<path d="M72 154.8l78.48 0l0 -4.32l-78.48 0z" fill="#00b200" stroke="#00b200"/>
<path d="M72 154.8l78.48 0l0 -4.32l-78.48 0l0 4.32" fill="none"/>
<path d="M72 178.8l277.6 0l0 -4.32l-277.6 0z" fill="#00b200" stroke="#00b200"/>
<path d="M72 178.8l277.6 0l0 -4.32l-277.6 0l0 4.32" fill="none"/>
<path d="M72 202.8l135.5 0l0 -4.32l-135.5 0z" fill="#00b200" stroke="#00b200"/>
<path d="M72 202.8l135.5 0l0 -4.32l-135.5 0l0 4.32" fill="none"/>
<path d="M72 226.8l112 0l0 -4.32l-112 0z" fill="#00b200" stroke="#00b200"/>
<path d="M72 226.8l112 0l0 -4.32l-112 0l0 4.32" fill="none"/>
<path d="M72 250.8l300.2 0l0 -4.32l-300.2 0z" fill="#00b200" stroke="#00b200"/>
<path d="M72 250.8l300.2 0l0 -4.32l-300.2 0l0 4.32" fill="none"/>
<path d="M72 274.8l225.8 0l0 -4.32l-225.8 0z" fill="#00b200" stroke="#00b200"/>
<path d="M72 274.8l225.8 0l0 -4.32l-225.8 0l0 4.32" fill="none"/>
<path d="M57.6 334l0 -7.2l7.2 0l0 7.2z" fill="#ff0000" stroke="#ff0000"/>
</g><g style="&sw;0.5;&fs;8pt;&as;">
<text x="72.00" y="334.00" stroke="none">C++</text>
<path d="M105.6 334l0 -7.2l7.2 0l0 7.2z" fill="#ffff00" stroke="#ffff00"/>
<text x="120.00" y="334.00" stroke="none">Mono</text>
<path d="M157.6 334l0 -7.2l7.2 0l0 7.2z" fill="#0066cc" stroke="#0066cc"/>
<text x="172.00" y="334.00" stroke="none">plain-C</text>
<path d="M221.6 334l0 -7.2l7.2 0l0 7.2z" fill="#00b200" stroke="#00b200"/>
<text x="236.00" y="334.00" stroke="none">Vala</text>
</g></g>
</g>
</svg>
